<svg xmlns="http://www.w3.org/2000/svg" xmlns:xlink="http://www.w3.org/1999/xlink" width="200" height="200" viewBox="0 0 200 200"><defs><clipPath id="a"><rect width="200" height="200" transform="translate(214 571)" fill="#fff"/></clipPath></defs><g transform="translate(-214 -571)" clip-path="url(#a)"><g transform="translate(214 571)"><circle cx="100" cy="100" r="100" fill="#21d0c3"/><path d="M98.61,119.455H71.191v19.684h2.393v-17.29H98.61v55.979H101V136.8h25.026v17.29h2.393V134.411H101V87.948H98.61v31.507Z" fill="#fff"/><path d="M99.806,185.821a4.493,4.493,0,1,0-4.492-4.492A4.492,4.492,0,0,0,99.806,185.821Z" fill="#0f7986"/><path d="M55.879,111.289H32.564v2.393H55.879v19.783h2.393V75.152H55.879v36.138Z" fill="#fff"/><path d="M57.076,137.957a4.493,4.493,0,1,0-4.493-4.492A4.492,4.492,0,0,0,57.076,137.957Z" fill="#fad24d"/><path d="M32.616,117.184a4.493,4.493,0,1,0-4.492-4.493A4.493,4.493,0,0,0,32.616,117.184Z" fill="#0f7986"/><path d="M143.552,111.289h23.314v2.393H143.552v19.783h-2.393V75.152h2.393Z" fill="#fff"/><path d="M142.355,137.885a4.419,4.419,0,1,1,4.42-4.419A4.418,4.418,0,0,1,142.355,137.885Z" fill="#0f7986"/><path d="M166.814,117.208a4.516,4.516,0,1,1,4.516-4.516A4.516,4.516,0,0,1,166.814,117.208Z" fill="#ff5b62"/><path d="M42.747,69.211c.218,0,.434.005.65.015A23.155,23.155,0,0,1,72.824,55.172a39.443,39.443,0,0,1,78.424,3.181,20.906,20.906,0,0,1-.762,41.8H42.748a15.471,15.471,0,0,1,0-30.941Z" fill="#ecf0f1"/><path d="M41.886,67.143c.218,0,.434.005.65.015A23.155,23.155,0,0,1,71.963,53.1a39.443,39.443,0,0,1,78.424,3.181,20.906,20.906,0,0,1-.763,41.8H41.887a15.471,15.471,0,0,1,0-30.941Z" fill="#fff"/><path d="M127.355,158.627a4.516,4.516,0,1,1,4.516-4.516A4.516,4.516,0,0,1,127.355,158.627Z" fill="#fad24d"/><path d="M72.458,143.823a4.516,4.516,0,1,1,4.516-4.516A4.516,4.516,0,0,1,72.458,143.823Z" fill="#ff5b62"/></g></g></svg>