<svg xmlns="http://www.w3.org/2000/svg" xmlns:xlink="http://www.w3.org/1999/xlink" width="200" height="200" viewBox="0 0 200 200"><defs><clipPath id="a"><rect width="200" height="200" transform="translate(214 571)" fill="#fff"/></clipPath></defs><g transform="translate(-214 -571)" clip-path="url(#a)"><g transform="translate(214 571)"><circle cx="100" cy="100" r="100" transform="translate(0 0)" fill="#fad24d"/><ellipse cx="71.205" cy="5.613" rx="71.205" ry="5.613" transform="translate(28.795 159.092)" fill="#edb937"/><path d="M25.774,26.259H174.226a8.894,8.894,0,0,1,8.867,8.868v91.448H16.907V35.127A8.894,8.894,0,0,1,25.774,26.259Z" fill="#666"/><path d="M22.928,120.553H177.072V35.126a2.87,2.87,0,0,0-2.846-2.846H25.773a2.87,2.87,0,0,0-2.846,2.846v85.427h0Z" fill="#21d0c3"/><path d="M183.094,126.575v9.7c0,4.879-4.4,8.868-9.776,8.868H26.682c-5.377,0-9.776-3.99-9.776-8.868v-9.7H183.094Z" fill="#fff"/><path d="M55.171,45.128h103a2.949,2.949,0,0,1,2.941,2.941v72.485H38.885V48.069a2.948,2.948,0,0,1,2.941-2.941H55.171Z" fill="#fff"/><path d="M41.825,45.128H158.176a2.948,2.948,0,0,1,2.941,2.941v5.88H38.885v-5.88a2.948,2.948,0,0,1,2.941-2.941Z" fill="#828282"/><path d="M88.432,48.174h63.914a.792.792,0,0,1,.79.79v1.465a.793.793,0,0,1-.79.79H88.432a.792.792,0,0,1-.789-.79V48.964A.792.792,0,0,1,88.432,48.174Z" fill="#fff"/><path d="M45.833,47.65a1.693,1.693,0,1,1-1.695,1.693A1.693,1.693,0,0,1,45.833,47.65Z" fill="#21d0c3"/><path d="M52.516,47.65a1.693,1.693,0,1,1-1.693,1.693A1.692,1.692,0,0,1,52.516,47.65Z" fill="#edb937"/><path d="M59.2,47.65a1.693,1.693,0,1,1-1.695,1.693A1.693,1.693,0,0,1,59.2,47.65Z" fill="#ff5b62"/><path d="M95.78,87.639h9.464l-22.9,32.913H72.881Z" fill="#ff5b62"/><path d="M105.244,87.639H95.78L111,109.52h9.464L105.245,87.639Z" fill="#ed4c54"/><path d="M143.938,75.807,120.467,109.52H111l24.621-35.495-9.6-2.522,26.021-10.24-1.515,16.705Z" fill="#ff5b62"/><path d="M70.288,61.643H99.62V63.1H70.288Zm0,3.376H91.309v1.454H70.288Z" fill="#dce3db"/><rect width="3.551" height="10.045" transform="translate(45.774 81.201)" fill="#edb937"/><rect width="3.551" height="18.711" transform="translate(53.271 72.534)" fill="#ff5b62"/><rect width="3.551" height="29.544" transform="translate(60.768 61.704)" fill="#21d0c3"/><circle cx="3.052" cy="3.052" r="3.052" transform="translate(96.948 132.417)" fill="#b6b6b8"/><path d="M119.166,159.091l14.1,4.517H66.733l11.376-4.517v-13.95h41.056v13.95Z" fill="#c2c2c4"/><path d="M119.166,159.091,78.11,145.141h41.056Z" fill="#b0b0b0"/><path d="M78.109,159.091h41.056l14.1,4.517v1.946H66.732v-1.946l11.376-4.517Z" fill="#ecf0f1"/><path d="M70.288,68.8H99.62v1.454H70.288Zm0,3.376H91.309V73.63H70.288Z" fill="#dce3db"/></g></g></svg>