<svg xmlns="http://www.w3.org/2000/svg" xmlns:xlink="http://www.w3.org/1999/xlink" width="60" height="46" viewBox="0 0 60 46"><defs><clipPath id="a"><rect width="60" height="46" transform="translate(30 228)" fill="#fff" stroke="#707070" stroke-width="1"/></clipPath></defs><g transform="translate(-30 -228)" clip-path="url(#a)"><g transform="translate(36.783 227.783)"><path d="M23.218,24.589c5.75,0,10.411-5.456,10.411-12.186C33.629,3.071,28.967.217,23.218.217S12.806,3.071,12.806,12.4C12.806,19.133,17.467,24.589,23.218,24.589Z" fill="#fff"/><path d="M46.208,42.526,40.955,30.693a2.636,2.636,0,0,0-1.188-1.264l-8.152-4.244a.525.525,0,0,0-.559.047,12.86,12.86,0,0,1-15.679,0,.526.526,0,0,0-.559-.047L6.667,29.429A2.635,2.635,0,0,0,5.48,30.693L.227,42.526a2.626,2.626,0,0,0,2.4,3.692h41.18a2.626,2.626,0,0,0,2.4-3.692Z" fill="#fff"/></g></g></svg>