<svg xmlns="http://www.w3.org/2000/svg" xmlns:xlink="http://www.w3.org/1999/xlink" width="60.215" height="71.802" viewBox="0 0 60.215 71.802"><defs><clipPath id="a"><rect width="60.215" height="71.802" fill="#729e45" stroke="#707070" stroke-width="3"/></clipPath></defs><g transform="translate(0 0)" clip-path="url(#a)"><g transform="translate(2.452 0)"><ellipse cx="1.257" cy="1.499" rx="1.257" ry="1.499" transform="translate(26.399 31.055)" fill="#729e45"/><ellipse cx="1.257" cy="1.499" rx="1.257" ry="1.499" transform="translate(26.399 36.101)" fill="#729e45"/><path d="M50.213,15.75a8,8,0,0,0,1.1-4.1V7.083C51.311,3.177,48.647,0,45.371,0h-.817c-3.275,0-5.94,3.177-5.94,7.083v4.572a8,8,0,0,0,1.092,4.085H35.762a8,8,0,0,0,1.092-4.085V7.083C36.854,3.177,34.19,0,30.915,0H30.1c-3.275,0-5.94,3.177-5.94,7.083v4.572a8,8,0,0,0,1.092,4.085H21.306A8,8,0,0,0,22.4,11.655V7.083C22.4,3.177,19.733,0,16.458,0h-.817C12.366,0,9.7,3.177,9.7,7.083v4.572a8,8,0,0,0,1.1,4.1C6.385,15.971,2.85,20.3,2.85,25.6V40.211c0,3.038,2.08,5.509,4.638,5.509.026,0,.051,0,.076,0V66.805c0,2.755,1.88,5,4.19,5h1.362a3.864,3.864,0,0,0,2.933-1.432A3.864,3.864,0,0,0,18.982,71.8h1.362a3.863,3.863,0,0,0,2.932-1.434A3.864,3.864,0,0,0,26.211,71.8h1.362a3.864,3.864,0,0,0,2.933-1.432A3.864,3.864,0,0,0,33.439,71.8H34.8a3.864,3.864,0,0,0,2.935-1.434A3.862,3.862,0,0,0,40.667,71.8h1.362a3.864,3.864,0,0,0,2.933-1.432A3.864,3.864,0,0,0,47.9,71.8h1.362c2.311,0,4.19-2.241,4.19-5V45.715c.025,0,.051,0,.076,0,2.557,0,4.638-2.471,4.638-5.509V25.6C58.162,20.3,54.628,15.971,50.213,15.75ZM41.129,7.083C41.129,4.83,42.665,3,44.554,3h.817C47.26,3,48.8,4.83,48.8,7.083v4.572c0,2.252-1.537,4.085-3.426,4.085h-.817c-1.889,0-3.426-1.832-3.426-4.085Zm-14.457,0C26.672,4.83,28.209,3,30.1,3h.817C32.8,3,34.34,4.83,34.34,7.083v4.572c0,2.252-1.537,4.085-3.426,4.085H30.1c-1.889,0-3.426-1.832-3.426-4.085V7.083Zm6.742,11.655-2.907,5.689L27.6,18.738ZM12.215,7.083C12.215,4.83,13.752,3,15.641,3h.817c1.889,0,3.426,1.832,3.426,4.085v4.572c0,2.252-1.537,4.085-3.426,4.085h-.817c-1.889,0-3.426-1.832-3.426-4.085V7.083ZM8.821,29.156a1.394,1.394,0,0,0-1.257,1.5h0V42.726c-.025,0-.051,0-.076,0a2.344,2.344,0,0,1-2.124-2.511V25.6c0-3.782,2.6-6.858,5.788-6.858h8.5A10.842,10.842,0,0,0,17.307,25.6V40.211a6.477,6.477,0,0,0,.153,1.4l-1.408.85-5.974-3.623V30.655h0A1.394,1.394,0,0,0,8.821,29.156Zm13.2,37.65a1.861,1.861,0,0,1-1.676,2H18.983a1.861,1.861,0,0,1-1.676-2V50.329a1.394,1.394,0,0,0-1.257-1.5,1.394,1.394,0,0,0-1.257,1.5V66.806a1.861,1.861,0,0,1-1.676,2H11.754a1.861,1.861,0,0,1-1.676-2v-24.6l5.4,3.277a1.078,1.078,0,0,0,1.138,0l2.13-1.286a4.267,4.267,0,0,0,3.2,1.522c.026,0,.051,0,.076,0v21.09Zm14.457,0a1.861,1.861,0,0,1-1.676,2H33.439a1.861,1.861,0,0,1-1.676-2V50.329a1.277,1.277,0,1,0-2.514,0V66.806a1.861,1.861,0,0,1-1.676,2H26.211a1.861,1.861,0,0,1-1.676-2V42.222l5.4,3.262a1.078,1.078,0,0,0,1.138,0l5.4-3.277v24.6Zm1.257-37.65a1.394,1.394,0,0,0-1.257,1.5h0v8.187L30.5,42.465l-5.969-3.6V30.655h0a1.394,1.394,0,0,0-1.257-1.5,1.394,1.394,0,0,0-1.257,1.5h0V42.726c-.025,0-.051,0-.076,0a2.344,2.344,0,0,1-2.124-2.511V25.6c0-3.414,2.117-6.253,4.877-6.772l4.735,9.264a1.161,1.161,0,0,0,2.147,0l4.735-9.264c2.76.519,4.877,3.358,4.877,6.772V40.211a2.344,2.344,0,0,1-2.124,2.511c-.026,0-.051,0-.076,0V30.655h0A1.394,1.394,0,0,0,37.734,29.156Zm13.2,37.65a1.861,1.861,0,0,1-1.676,2H47.9a1.861,1.861,0,0,1-1.676-2V50.329a1.277,1.277,0,1,0-2.514,0V66.806a1.861,1.861,0,0,1-1.676,2H40.667a1.861,1.861,0,0,1-1.676-2V45.715c.025,0,.051,0,.076,0a4.267,4.267,0,0,0,3.2-1.522l2.13,1.286a1.078,1.078,0,0,0,1.138,0l5.4-3.277v24.6Zm2.591-24.084c-.026,0-.051,0-.076,0V30.655h0a1.277,1.277,0,1,0-2.514,0h0v8.187L44.96,42.465l-1.408-.85a6.469,6.469,0,0,0,.153-1.4V25.6a10.842,10.842,0,0,0-2.347-6.858h8.5c3.192,0,5.788,3.076,5.788,6.858V40.211h0A2.344,2.344,0,0,1,53.525,42.722Z" transform="translate(-2.85)" fill="#729e45"/></g></g></svg>