<svg xmlns="http://www.w3.org/2000/svg" xmlns:xlink="http://www.w3.org/1999/xlink" width="67" height="52" viewBox="0 0 67 52"><defs><clipPath id="a"><rect width="67" height="52" fill="#eede23" stroke="#707070" stroke-width="1"/></clipPath></defs><g clip-path="url(#a)"><g transform="translate(7.5 0)"><path d="M51.7,45.532,35.883,29.719l-.015-.015L32.6,26.438a1.038,1.038,0,0,0-1.467,0L29.52,28.053l-1.94-1.94A15.767,15.767,0,0,0,26.871,4.6h0a15.738,15.738,0,1,0-.759,22.976l1.94,1.94-1.614,1.614a1.038,1.038,0,0,0,0,1.467l3.273,3.274.029.028L45.532,51.7A1.038,1.038,0,0,0,47,51.7L51.7,47a1.038,1.038,0,0,0,0-1.467ZM25.4,25.4h0a13.663,13.663,0,1,1,0-19.333A13.688,13.688,0,0,1,25.4,25.4Zm3.235,6.465,3.229-3.229,1.806,1.806-3.229,3.229ZM46.266,49.495,31.913,35.142l3.229-3.229L49.495,46.266Z" transform="translate(0 0)"/><g transform="translate(4.623 4.623)"><path d="M23.6,7.874a11.118,11.118,0,1,0,3.257,7.863A11.133,11.133,0,0,0,23.6,7.874ZM22.132,22.132a9.043,9.043,0,1,1,2.649-6.395A8.983,8.983,0,0,1,22.132,22.132Z" transform="translate(-4.623 -4.623)"/></g><g transform="translate(18.665 13.934)"><path d="M22.321,14.83a1.038,1.038,0,0,0-2.056.282,4.538,4.538,0,0,1-1.3,3.857,1.038,1.038,0,0,0,1.467,1.468A6.6,6.6,0,0,0,22.321,14.83Z" transform="translate(-18.665 -13.934)"/></g><g transform="translate(19.15 11.125)"><path d="M20.152,11.125a1.038,1.038,0,0,0,0,2.075A1.038,1.038,0,0,0,20.152,11.125Z" transform="translate(-19.15 -11.125)"/></g></g></g></svg>