<svg xmlns="http://www.w3.org/2000/svg" xmlns:xlink="http://www.w3.org/1999/xlink" width="60.215" height="71.802" viewBox="0 0 60.215 71.802"><defs><clipPath id="a"><rect width="60.215" height="71.802" fill="#729e45" stroke="#707070" stroke-width="3"/></clipPath></defs><g transform="translate(0 0)" clip-path="url(#a)"><g transform="translate(8.994)"><path d="M36.315,22.414l-.352,3.068a1.69,1.69,0,0,0,.522,1.46,1.161,1.161,0,0,0,.762.3,1.126,1.126,0,0,0,.564-.154l2.338-1.347,2.338,1.347a1.124,1.124,0,0,0,1.326-.141,1.689,1.689,0,0,0,.522-1.46l-.352-3.068,1.8-2.235a1.766,1.766,0,0,0,.3-1.547,1.4,1.4,0,0,0-1-1.043l-2.555-.549-1.228-2.729a1.208,1.208,0,0,0-2.284,0l-1.228,2.729-2.555.549a1.4,1.4,0,0,0-1,1.043,1.766,1.766,0,0,0,.3,1.547Zm2.54-2.465a1.337,1.337,0,0,0,.912-.79l.382-.848.382.848a1.337,1.337,0,0,0,.912.79l.794.171-.559.695a1.742,1.742,0,0,0-.348,1.279l.109.953-.727-.419a1.11,1.11,0,0,0-1.128,0l-.727.418.109-.953a1.743,1.743,0,0,0-.348-1.279l-.559-.695Z" transform="translate(-13.768 0.347)" fill="#729e45"/><path d="M23.208,18.764h6.027a1.437,1.437,0,0,0,1.3-1.545,1.437,1.437,0,0,0-1.3-1.545H23.208a1.437,1.437,0,0,0-1.3,1.545A1.437,1.437,0,0,0,23.208,18.764Z" transform="translate(-12.057 0.403)" fill="#729e45"/><path d="M23.208,24.791h6.027a1.569,1.569,0,0,0,0-3.091H23.208a1.569,1.569,0,0,0,0,3.091Z" transform="translate(-12.057 0.559)" fill="#729e45"/><path d="M36.315,38.069l-.352,3.068a1.689,1.689,0,0,0,.522,1.46,1.124,1.124,0,0,0,1.326.141l2.338-1.347,2.338,1.347a1.126,1.126,0,0,0,.564.154,1.161,1.161,0,0,0,.762-.3,1.689,1.689,0,0,0,.522-1.46l-.352-3.068,1.8-2.235a1.766,1.766,0,0,0,.3-1.547,1.4,1.4,0,0,0-1-1.043l-2.555-.549-1.228-2.729a1.208,1.208,0,0,0-2.284,0l-1.228,2.729-2.555.549a1.4,1.4,0,0,0-1,1.043,1.766,1.766,0,0,0,.3,1.547Zm2.54-2.465a1.337,1.337,0,0,0,.912-.79l.382-.848.382.848a1.337,1.337,0,0,0,.912.79l.794.171-.559.695a1.742,1.742,0,0,0-.348,1.279l.109.953-.727-.419a1.11,1.11,0,0,0-1.128,0l-.727.418.109-.953a1.743,1.743,0,0,0-.348-1.279l-.559-.695Z" transform="translate(-13.768 0.75)" fill="#729e45"/><path d="M23.208,34.421h6.027a1.569,1.569,0,0,0,0-3.091H23.208a1.569,1.569,0,0,0,0,3.091Z" transform="translate(-12.057 0.807)" fill="#729e45"/><path d="M23.208,40.447h6.027a1.569,1.569,0,0,0,0-3.091H23.208a1.569,1.569,0,0,0,0,3.091Z" transform="translate(-12.057 0.962)" fill="#729e45"/><path d="M36.315,53.726l-.352,3.068a1.689,1.689,0,0,0,.522,1.46,1.16,1.16,0,0,0,.762.3,1.126,1.126,0,0,0,.564-.154l2.338-1.347,2.338,1.347a1.124,1.124,0,0,0,1.326-.141,1.689,1.689,0,0,0,.522-1.46l-.352-3.068,1.8-2.235a1.766,1.766,0,0,0,.3-1.547,1.4,1.4,0,0,0-1-1.043l-2.556-.549-1.228-2.729a1.208,1.208,0,0,0-2.284,0l-1.228,2.729-2.556.549a1.4,1.4,0,0,0-1,1.043,1.766,1.766,0,0,0,.3,1.547Zm2.54-2.465a1.336,1.336,0,0,0,.912-.79l.382-.848.382.848a1.337,1.337,0,0,0,.912.79l.794.171-.559.695A1.742,1.742,0,0,0,41.33,53.4l.109.953-.727-.419a1.11,1.11,0,0,0-1.128,0l-.727.419.109-.953a1.743,1.743,0,0,0-.348-1.279l-.559-.695Z" transform="translate(-13.768 1.154)" fill="#729e45"/><path d="M23.208,50.076h6.027a1.569,1.569,0,0,0,0-3.091H23.208a1.569,1.569,0,0,0,0,3.091Z" transform="translate(-12.057 1.21)" fill="#729e45"/><path d="M23.208,56.1h6.027a1.569,1.569,0,0,0,0-3.091H23.208a1.569,1.569,0,0,0,0,3.091Z" transform="translate(-12.057 1.365)" fill="#729e45"/><path d="M51.387,2.318H42.261V1.545A1.437,1.437,0,0,0,40.965,0H22.173a1.437,1.437,0,0,0-1.3,1.545v.773H11.751a1.437,1.437,0,0,0-1.3,1.545V70.257a1.437,1.437,0,0,0,1.3,1.545H51.387a1.437,1.437,0,0,0,1.3-1.545V3.864A1.437,1.437,0,0,0,51.387,2.318Zm-27.918.773h16.2V8.5h-16.2Zm21.438,8.5V62.529H18.231V11.591Zm5.184,57.12H13.047V5.409h7.83V8.5H16.935a1.437,1.437,0,0,0-1.3,1.545v54.03a1.437,1.437,0,0,0,1.3,1.545H46.2a1.437,1.437,0,0,0,1.3-1.545V10.045A1.437,1.437,0,0,0,46.2,8.5H42.262V5.409h7.829v63.3Z" transform="translate(-10.455)" fill="#729e45"/></g></g></svg>