<svg xmlns="http://www.w3.org/2000/svg" xmlns:xlink="http://www.w3.org/1999/xlink" width="60.215" height="71.802" viewBox="0 0 60.215 71.802"><defs><clipPath id="a"><rect width="60.215" height="71.802" fill="#729e45" stroke="#707070" stroke-width="3"/></clipPath></defs><g transform="translate(0 0)" clip-path="url(#a)"><g transform="translate(1.346)"><ellipse cx="1.313" cy="1.566" rx="1.313" ry="1.566" transform="translate(27.448 28.528)" fill="#729e45"/><path d="M50.814,59.9a12.574,12.574,0,0,0-1.315.069L41.662,52.35c3.934-1.6,6.7-4.117,6.7-7.484,0-3.131-2.394-5.53-5.893-7.134a6.626,6.626,0,0,0,.465-2.458V23.608c0-4.988-3.025-8.588-7.491-9.128a9.3,9.3,0,0,0,.991-4.34V7.4c0-4.287-2.389-7.4-5.68-7.4H29.9c-3.291,0-5.68,3.112-5.68,7.4V10.14a9.3,9.3,0,0,0,.991,4.34c-4.466.539-7.491,4.14-7.491,9.128V35.275a6.631,6.631,0,0,0,.465,2.458c-3.5,1.6-5.893,4-5.893,7.134,0,3.367,2.766,5.888,6.7,7.484l-7.837,7.619A12.5,12.5,0,0,0,9.839,59.9c-4.717,0-8.274,2.558-8.274,5.951S5.122,71.8,9.839,71.8s8.274-2.558,8.274-5.951c0-2.156-1.438-3.974-3.7-5.013L22.1,53.364a33.131,33.131,0,0,0,6.908.978v5.627c-4.048.427-6.96,2.813-6.96,5.882,0,3.393,3.557,5.951,8.274,5.951S38.6,69.244,38.6,65.851c0-3.07-2.912-5.456-6.96-5.882V54.342a33.131,33.131,0,0,0,6.908-.978l7.688,7.474c-2.258,1.04-3.7,2.857-3.7,5.013,0,3.393,3.557,5.951,8.274,5.951s8.274-2.558,8.274-5.951S55.531,59.9,50.814,59.9ZM15.486,65.851c0,1.149-2.2,2.819-5.647,2.819S4.192,67,4.192,65.851s2.2-2.819,5.647-2.819S15.486,64.7,15.486,65.851ZM26.846,7.4c0-2.124.944-4.267,3.053-4.267h.854c2.109,0,3.053,2.143,3.053,4.267V10.14c0,2.124-.944,4.267-3.053,4.267H29.9c-2.109,0-3.053-2.143-3.053-4.267Zm5.49,10.14-2.01,4.516-2.01-4.516ZM20.345,23.608a5.655,5.655,0,0,1,5.03-5.995l3.791,8.517a1.225,1.225,0,0,0,2.32,0l3.791-8.517a5.655,5.655,0,0,1,5.03,5.995V35.275A2.449,2.449,0,0,1,38.089,37.9c-.027,0-.054,0-.08,0V27.64a1.334,1.334,0,1,0-2.627,0v6.252l-5.059,3.662L25.27,33.908V27.64a1.457,1.457,0,0,0-1.313-1.566,1.456,1.456,0,0,0-1.313,1.566V37.9c-.026,0-.053,0-.08,0a2.449,2.449,0,0,1-2.218-2.623V23.608ZM35.382,37.556v5.81H25.27v-5.8h0l4.375,3.157a1.135,1.135,0,0,0,1.361,0Zm.592,28.3c0,1.149-2.2,2.819-5.647,2.819S24.679,67,24.679,65.851s2.2-2.819,5.647-2.819S35.974,64.7,35.974,65.851ZM30.326,51.235c-9.547,0-15.409-3.709-15.409-6.369,0-1.5,1.859-3.325,5.184-4.638a4.255,4.255,0,0,0,2.462.8c.027,0,.053,0,.08,0v3.907A1.457,1.457,0,0,0,23.956,46.5H36.7a1.457,1.457,0,0,0,1.313-1.566V41.025c.027,0,.053,0,.08,0a4.255,4.255,0,0,0,2.462-.8c3.326,1.313,5.184,3.142,5.184,4.638C45.736,47.526,39.873,51.235,30.326,51.235ZM50.814,68.67c-3.447,0-5.647-1.67-5.647-2.819s2.2-2.819,5.647-2.819,5.647,1.67,5.647,2.819S54.261,68.67,50.814,68.67Z" transform="translate(-1.565)" fill="#729e45"/></g></g></svg>