<svg xmlns="http://www.w3.org/2000/svg" width="33" height="33" viewBox="0 0 33 33"><g fill="#b52d2d"><path d="M 16.5 32.5 C 12.22624015808105 32.5 8.208290100097656 30.8357105255127 5.18628978729248 27.8137092590332 C 2.164289951324463 24.79170989990234 0.5 20.77375984191895 0.5 16.5 C 0.5 12.22624015808105 2.164289951324463 8.208290100097656 5.18628978729248 5.18628978729248 C 8.208290100097656 2.164289951324463 12.22624015808105 0.5 16.5 0.5 C 20.77375984191895 0.5 24.79170989990234 2.164289951324463 27.8137092590332 5.18628978729248 C 30.8357105255127 8.208290100097656 32.5 12.22624015808105 32.5 16.5 C 32.5 20.77375984191895 30.8357105255127 24.79170989990234 27.8137092590332 27.8137092590332 C 24.79170989990234 30.8357105255127 20.77375984191895 32.5 16.5 32.5 Z" stroke="none"/><path d="M 16.5 1 C 12.35980033874512 1 8.467409133911133 2.612279891967773 5.539840698242188 5.539840698242188 C 2.612279891967773 8.467409133911133 1 12.35980033874512 1 16.5 C 1 20.64019966125488 2.612279891967773 24.53258895874023 5.539840698242188 27.46015930175781 C 8.467409133911133 30.38772010803223 12.35980033874512 32 16.5 32 C 20.64019966125488 32 24.53258895874023 30.38772010803223 27.46015930175781 27.46015930175781 C 30.38772010803223 24.53258895874023 32 20.64019966125488 32 16.5 C 32 12.35980033874512 30.38772010803223 8.467409133911133 27.46015930175781 5.539840698242188 C 24.53258895874023 2.612279891967773 20.64019966125488 1 16.5 1 M 16.5 0 C 25.61269950866699 0 33 7.387300491333008 33 16.5 C 33 25.61269950866699 25.61269950866699 33 16.5 33 C 7.387300491333008 33 0 25.61269950866699 0 16.5 C 0 7.387300491333008 7.387300491333008 0 16.5 0 Z" stroke="none" fill="#244304"/></g></svg>