<svg xmlns="http://www.w3.org/2000/svg" xmlns:xlink="http://www.w3.org/1999/xlink" width="60.215" height="71.802" viewBox="0 0 60.215 71.802"><defs><clipPath id="a"><rect width="60.215" height="71.802" fill="#729e45" stroke="#707070" stroke-width="3"/></clipPath></defs><g transform="translate(0 0)" clip-path="url(#a)"><g transform="translate(0 0)"><path d="M42.987,37.048a1.852,1.852,0,0,1,0-2.293L59.116,15.522a5.119,5.119,0,0,0,0-6.339l-6.6-7.872a3.35,3.35,0,0,0-5.316,0L31.069,20.543a1.212,1.212,0,0,1-1.923,0L13.017,1.311a3.35,3.35,0,0,0-5.316,0L1.1,9.183a5.119,5.119,0,0,0,0,6.339L17.228,34.754a1.852,1.852,0,0,1,0,2.293L1.1,56.28a5.119,5.119,0,0,0,0,6.339l6.6,7.872A3.466,3.466,0,0,0,10.359,71.8a3.467,3.467,0,0,0,2.658-1.311L29.146,51.259a1.212,1.212,0,0,1,1.923,0L47.2,70.491a3.35,3.35,0,0,0,5.316,0l6.6-7.872a5.119,5.119,0,0,0,0-6.339ZM57.419,60.6l-6.6,7.872a1.212,1.212,0,0,1-1.923,0L32.766,49.236a3.35,3.35,0,0,0-5.316,0L11.321,68.468a1.212,1.212,0,0,1-1.923,0L2.8,60.6a1.852,1.852,0,0,1,0-2.293L18.925,39.07a5.119,5.119,0,0,0,0-6.339L2.8,13.5a1.852,1.852,0,0,1,0-2.293L9.4,3.334a1.212,1.212,0,0,1,1.923,0L27.45,22.566a3.35,3.35,0,0,0,5.316,0L48.894,3.334a1.212,1.212,0,0,1,1.923,0l6.6,7.872a1.852,1.852,0,0,1,0,2.293L41.291,32.732a5.119,5.119,0,0,0,0,6.339L57.419,58.3A1.852,1.852,0,0,1,57.419,60.6Z" transform="translate(0 0)" fill="#729e45"/><g transform="translate(9.26 51.968)"><path d="M22.512,51.083a1.068,1.068,0,0,0-1.7,0l-9.7,11.566a1.632,1.632,0,0,0,0,2.023,1.068,1.068,0,0,0,1.7,0l9.7-11.566A1.632,1.632,0,0,0,22.512,51.083Z" transform="translate(-10.764 -50.664)" fill="#729e45"/></g><g transform="translate(21.757 47.668)"><path d="M28.149,46.891a1.068,1.068,0,0,0-1.7,0l-.808.964a1.632,1.632,0,0,0,0,2.023,1.068,1.068,0,0,0,1.7,0l.808-.964A1.632,1.632,0,0,0,28.149,46.891Z" transform="translate(-25.293 -46.472)" fill="#729e45"/></g></g></g></svg>