<svg xmlns="http://www.w3.org/2000/svg" xmlns:xlink="http://www.w3.org/1999/xlink" width="116" height="116" viewBox="0 0 116 116"><defs><clipPath id="a"><rect width="116" height="116" transform="translate(-37 -5)" fill="#9e4545" stroke="#707070" stroke-width="1"/></clipPath></defs><g transform="translate(37 5)" clip-path="url(#a)"><g transform="translate(-37 -5)"><path d="M77.474,74.393c-2.748,0-4.984-1.935-4.984-4.314s2.236-4.314,4.984-4.314,4.984,1.935,4.984,4.314a2.266,2.266,0,0,0,4.531,0,9.015,9.015,0,0,0-7.25-8.59V60.311a2.266,2.266,0,1,0-4.531,0v1.178a9.015,9.015,0,0,0-7.25,8.59c0,4.877,4.269,8.845,9.516,8.845,2.748,0,4.984,1.935,4.984,4.314s-2.236,4.314-4.984,4.314-4.984-1.935-4.984-4.314a2.266,2.266,0,0,0-4.531,0,9.014,9.014,0,0,0,7.25,8.59v.979a2.266,2.266,0,0,0,4.531,0v-.979a9.015,9.015,0,0,0,7.25-8.59C86.989,78.361,82.721,74.393,77.474,74.393Z" fill="#9e4545"/><path d="M102.289,60.917A29.52,29.52,0,0,0,90.231,50.246a2.266,2.266,0,1,0-1.963,4.084A24.943,24.943,0,0,1,99.5,88.493a2.266,2.266,0,1,0,4,2.128,29.486,29.486,0,0,0-1.213-29.7Z" fill="#9e4545"/><path d="M81.035,47.352h-.152a2.266,2.266,0,1,0,0,4.531h.142a2.266,2.266,0,0,0,.01-4.531Z" fill="#9e4545"/><path d="M66.7,99.28A24.943,24.943,0,0,1,55.468,65.116a2.266,2.266,0,1,0-4-2.128,29.466,29.466,0,0,0,13.271,40.376A2.266,2.266,0,1,0,66.7,99.28Z" fill="#9e4545"/><path d="M74.086,101.727h-.131a2.266,2.266,0,0,0-.021,4.531h.152a2.266,2.266,0,1,0,0-4.531Z" fill="#9e4545"/><path d="M87.772,39.686a10.4,10.4,0,0,0-1.007-1.851h5.9a10.422,10.422,0,0,0,0-20.844H74.521A10.415,10.415,0,0,0,65.93.68H10.422a10.422,10.422,0,1,0,0,20.844H28.565a10.393,10.393,0,0,0,0,11.781H22.656A10.416,10.416,0,0,0,16.18,51.883a10.4,10.4,0,0,0,0,16.312,10.4,10.4,0,0,0,0,16.312,10.416,10.416,0,0,0,6.476,18.578h26.7a38.507,38.507,0,1,0,38.416-63.4Zm4.892-18.163a5.891,5.891,0,0,1,0,11.781H37.156a5.891,5.891,0,0,1,0-11.781ZM10.422,16.992a5.891,5.891,0,0,1,0-11.781H65.93a5.891,5.891,0,0,1,0,11.781ZM22.656,37.836H78.164a5.887,5.887,0,0,1,2.57.592c-1.072-.09-2.155-.138-3.25-.138A38.4,38.4,0,0,0,50.229,49.617H22.656a5.891,5.891,0,0,1,0-11.781Zm0,16.312h23.7A38.406,38.406,0,0,0,40.535,65.93H22.656a5.891,5.891,0,0,1,0-11.781Zm0,16.312H39.494a38.546,38.546,0,0,0-.14,11.781h-16.7a5.891,5.891,0,1,1,0-11.781Zm0,28.094a5.891,5.891,0,1,1,0-11.781H40.28a38.364,38.364,0,0,0,5.436,11.781Zm54.828,12.235A33.984,33.984,0,1,1,111.469,76.8,34.023,34.023,0,0,1,77.484,110.789Z" fill="#9e4545"/></g></g></svg>