<svg xmlns="http://www.w3.org/2000/svg" xmlns:xlink="http://www.w3.org/1999/xlink" width="91" height="81" viewBox="0 0 91 81"><defs><clipPath id="a"><rect width="91" height="81" transform="translate(842 1348)" fill="#fff" stroke="#707070" stroke-width="1"/></clipPath></defs><g transform="translate(-842 -1348)" clip-path="url(#a)"><path d="M40.5,32.446A8.055,8.055,0,1,0,48.554,40.5,8.065,8.065,0,0,0,40.5,32.446Zm0,0A8.055,8.055,0,1,0,48.554,40.5,8.065,8.065,0,0,0,40.5,32.446ZM53.918,19.313H27.082a7.778,7.778,0,0,0-7.769,7.769V53.918a7.778,7.778,0,0,0,7.769,7.769H53.918a7.778,7.778,0,0,0,7.769-7.769V27.082A7.778,7.778,0,0,0,53.918,19.313ZM40.5,54.45A13.95,13.95,0,1,1,54.45,40.5,13.966,13.966,0,0,1,40.5,54.45ZM54.9,29.435a3.3,3.3,0,1,1,3.3-3.3A3.3,3.3,0,0,1,54.9,29.435ZM40.5,32.446A8.055,8.055,0,1,0,48.554,40.5,8.065,8.065,0,0,0,40.5,32.446ZM53.918,19.313H27.082a7.778,7.778,0,0,0-7.769,7.769V53.918a7.778,7.778,0,0,0,7.769,7.769H53.918a7.778,7.778,0,0,0,7.769-7.769V27.082A7.778,7.778,0,0,0,53.918,19.313ZM40.5,54.45A13.95,13.95,0,1,1,54.45,40.5,13.966,13.966,0,0,1,40.5,54.45ZM54.9,29.435a3.3,3.3,0,1,1,3.3-3.3A3.3,3.3,0,0,1,54.9,29.435ZM40.5,32.446A8.055,8.055,0,1,0,48.554,40.5,8.065,8.065,0,0,0,40.5,32.446ZM0,0V81H81V0ZM67.581,53.918A13.677,13.677,0,0,1,53.918,67.581H27.082A13.677,13.677,0,0,1,13.419,53.918V27.082A13.677,13.677,0,0,1,27.082,13.419H53.918A13.677,13.677,0,0,1,67.581,27.082V53.918ZM53.918,19.313H27.082a7.778,7.778,0,0,0-7.769,7.769V53.918a7.778,7.778,0,0,0,7.769,7.769H53.918a7.778,7.778,0,0,0,7.769-7.769V27.082A7.778,7.778,0,0,0,53.918,19.313ZM40.5,54.45A13.95,13.95,0,1,1,54.45,40.5,13.966,13.966,0,0,1,40.5,54.45ZM54.9,29.435a3.3,3.3,0,1,1,3.3-3.3A3.3,3.3,0,0,1,54.9,29.435ZM40.5,32.446A8.055,8.055,0,1,0,48.554,40.5,8.065,8.065,0,0,0,40.5,32.446Zm0,0A8.055,8.055,0,1,0,48.554,40.5,8.065,8.065,0,0,0,40.5,32.446Zm0,0A8.055,8.055,0,1,0,48.554,40.5,8.065,8.065,0,0,0,40.5,32.446ZM53.918,19.313H27.082a7.778,7.778,0,0,0-7.769,7.769V53.918a7.778,7.778,0,0,0,7.769,7.769H53.918a7.778,7.778,0,0,0,7.769-7.769V27.082A7.778,7.778,0,0,0,53.918,19.313ZM40.5,54.45A13.95,13.95,0,1,1,54.45,40.5,13.966,13.966,0,0,1,40.5,54.45ZM54.9,29.435a3.3,3.3,0,1,1,3.3-3.3A3.3,3.3,0,0,1,54.9,29.435ZM40.5,32.446A8.055,8.055,0,1,0,48.554,40.5,8.065,8.065,0,0,0,40.5,32.446Zm0,0A8.055,8.055,0,1,0,48.554,40.5,8.065,8.065,0,0,0,40.5,32.446Zm0,0A8.055,8.055,0,1,0,48.554,40.5,8.065,8.065,0,0,0,40.5,32.446ZM53.918,19.313H27.082a7.778,7.778,0,0,0-7.769,7.769V53.918a7.778,7.778,0,0,0,7.769,7.769H53.918a7.778,7.778,0,0,0,7.769-7.769V27.082A7.778,7.778,0,0,0,53.918,19.313ZM40.5,54.45A13.95,13.95,0,1,1,54.45,40.5,13.966,13.966,0,0,1,40.5,54.45ZM54.9,29.435a3.3,3.3,0,1,1,3.3-3.3A3.3,3.3,0,0,1,54.9,29.435ZM40.5,32.446A8.055,8.055,0,1,0,48.554,40.5,8.065,8.065,0,0,0,40.5,32.446Z" transform="translate(847 1348)" fill="#c536a4"/></g></svg>