<svg xmlns="http://www.w3.org/2000/svg" xmlns:xlink="http://www.w3.org/1999/xlink" width="200" height="200" viewBox="0 0 200 200"><defs><clipPath id="a"><rect width="200" height="200" transform="translate(214 571)" fill="#fff"/></clipPath></defs><g transform="translate(-214 -571)" clip-path="url(#a)"><g transform="translate(214 571)"><circle cx="100" cy="100" r="100" fill="#ff5b62"/><ellipse cx="59.407" cy="15.622" rx="59.407" ry="15.622" transform="translate(39.252 124.616)" fill="#f4f6f7"/><path d="M158.066,140.115v19.744c0,8.56-26.6,15.5-59.409,15.5s-59.409-6.939-59.409-15.5V140.115c0,8.56,26.6,15.5,59.409,15.5S158.066,148.675,158.066,140.115Z" fill="#d7dee0"/><ellipse cx="59.407" cy="15.622" rx="59.407" ry="15.622" transform="translate(39.252 92.14)" fill="#f4f6f7"/><path d="M158.066,107.64v19.744c0,8.56-26.6,15.5-59.409,15.5s-59.409-6.939-59.409-15.5V107.64c0,8.561,26.6,15.5,59.409,15.5S158.066,116.2,158.066,107.64Z" fill="#d7dee0"/><ellipse cx="59.407" cy="15.622" rx="59.407" ry="15.622" transform="translate(39.252 59.665)" fill="#f4f6f7"/><path d="M158.066,75.165V94.908c0,8.561-26.6,15.5-59.409,15.5s-59.409-6.939-59.409-15.5V75.165c0,8.56,26.6,15.5,59.409,15.5S158.066,83.725,158.066,75.165Z" fill="#d7dee0"/><ellipse cx="59.407" cy="15.622" rx="59.407" ry="15.622" transform="translate(39.252 27.189)" fill="#f4f6f7"/><path d="M158.066,42.69V62.434c0,8.56-26.6,15.5-59.409,15.5s-59.409-6.939-59.409-15.5V42.69c0,8.56,26.6,15.5,59.409,15.5S158.066,51.25,158.066,42.69Z" fill="#d7dee0"/><path d="M156.09,66.385v4.981C149.361,78,126.2,82.889,98.657,82.889S47.954,78,41.224,71.366V66.385c6.729,6.633,29.891,11.523,57.433,11.523S149.361,73.018,156.09,66.385Z" fill="#c2cacc"/><path d="M156.09,98.886v4.981c-6.729,6.634-29.891,11.523-57.433,11.523s-50.7-4.889-57.433-11.523V98.886c6.729,6.633,29.891,11.523,57.433,11.523S149.361,105.518,156.09,98.886Z" fill="#c2cacc"/><path d="M156.09,131.36v4.982c-6.729,6.633-29.891,11.523-57.433,11.523s-50.7-4.89-57.433-11.523V131.36c6.729,6.634,29.891,11.523,57.433,11.523S149.361,137.993,156.09,131.36Z" fill="#c2cacc"/><circle cx="3.298" cy="3.298" r="3.298" transform="translate(131.552 62.242)" fill="#ff5b62"/><circle cx="3.298" cy="3.298" r="3.298" transform="translate(122.261 63.31)" fill="#21d0c3"/><circle cx="3.298" cy="3.298" r="3.298" transform="translate(131.552 94.386)" fill="#ff5b62"/><circle cx="3.298" cy="3.298" r="3.298" transform="translate(122.261 95.454)" fill="#21d0c3"/><circle cx="3.298" cy="3.298" r="3.298" transform="translate(131.552 126.527)" fill="#ff5b62"/><circle cx="3.298" cy="3.298" r="3.298" transform="translate(122.262 127.595)" fill="#21d0c3"/><circle cx="3.298" cy="3.298" r="3.298" transform="translate(131.552 158.671)" fill="#ff5b62"/><circle cx="3.298" cy="3.298" r="3.298" transform="translate(122.262 159.739)" fill="#21d0c3"/><path d="M54.8,67.289a1.236,1.236,0,0,1,1.035-2.245,45.593,45.593,0,0,0,9.039,2.773,64.938,64.938,0,0,0,10.4,1.317,1.235,1.235,0,0,1-.107,2.467,67.5,67.5,0,0,1-10.8-1.365A48.279,48.279,0,0,1,54.8,67.289Z" fill="#c2cacc"/><path d="M54.8,62.293a1.236,1.236,0,0,1,1.035-2.245,45.65,45.65,0,0,0,9.039,2.773,64.9,64.9,0,0,0,10.4,1.317,1.235,1.235,0,1,1-.107,2.467,67.411,67.411,0,0,1-10.8-1.365A48.32,48.32,0,0,1,54.8,62.293Z" fill="#c2cacc"/><path d="M54.8,100.141A1.236,1.236,0,0,1,55.834,97.9a45.62,45.62,0,0,0,9.039,2.773,64.9,64.9,0,0,0,10.4,1.317,1.235,1.235,0,0,1-.107,2.467,67.5,67.5,0,0,1-10.8-1.365,48.25,48.25,0,0,1-9.571-2.947Z" fill="#c2cacc"/><path d="M54.8,95.145A1.236,1.236,0,0,1,55.834,92.9a45.65,45.65,0,0,0,9.039,2.773,64.943,64.943,0,0,0,10.4,1.317,1.235,1.235,0,1,1-.107,2.467,67.456,67.456,0,0,1-10.8-1.365A48.291,48.291,0,0,1,54.8,95.145Z" fill="#c2cacc"/><path d="M54.8,132.415a1.236,1.236,0,1,1,1.035-2.245,45.623,45.623,0,0,0,9.039,2.773,64.9,64.9,0,0,0,10.4,1.317,1.235,1.235,0,0,1-.107,2.467,67.5,67.5,0,0,1-10.8-1.365,48.307,48.307,0,0,1-9.571-2.947Z" fill="#c2cacc"/><path d="M54.8,127.42a1.236,1.236,0,0,1,1.035-2.245,45.65,45.65,0,0,0,9.039,2.773,64.943,64.943,0,0,0,10.4,1.317,1.235,1.235,0,1,1-.107,2.467,67.455,67.455,0,0,1-10.8-1.365A48.291,48.291,0,0,1,54.8,127.42Z" fill="#c2cacc"/><path d="M54.8,164.822a1.236,1.236,0,0,1,1.035-2.245,45.65,45.65,0,0,0,9.039,2.773,64.9,64.9,0,0,0,10.4,1.317,1.235,1.235,0,1,1-.107,2.467,67.412,67.412,0,0,1-10.8-1.365A48.29,48.29,0,0,1,54.8,164.822Z" fill="#c2cacc"/><path d="M54.8,159.825a1.236,1.236,0,0,1,1.035-2.245,45.592,45.592,0,0,0,9.039,2.773,64.94,64.94,0,0,0,10.4,1.317,1.235,1.235,0,0,1-.107,2.467,67.5,67.5,0,0,1-10.8-1.365,48.251,48.251,0,0,1-9.571-2.947Z" fill="#c2cacc"/><path d="M130.663,135.97l5.894,5.894-3.777,3.777-5.894-5.893q.96-.918,1.911-1.868T130.663,135.97Z" fill="#666"/><path d="M76.263,85.347a37.307,37.307,0,1,1,0,52.761,37.309,37.309,0,0,1,0-52.761Z" fill="#666"/><path d="M79.681,88.765a32.473,32.473,0,1,1,0,45.924A32.474,32.474,0,0,1,79.681,88.765Z" fill="#15bdb2"/><path d="M171.568,186.438l5.784-5.784a2.1,2.1,0,0,0-.036-2.962l-35.4-35.4a2.105,2.105,0,0,0-2.962-.036l-5.784,5.784a2.108,2.108,0,0,0,.037,2.962l35.4,35.4a2.1,2.1,0,0,0,2.961.037Z" fill="#666"/><path d="M143.1,143.473l-2.575-2.575a2.1,2.1,0,0,0-2.962-.037l-5.784,5.785a2.1,2.1,0,0,0,.036,2.961l2.575,2.575,8.709-8.709Z" fill="#fad24d"/><path d="M143.1,143.473l-2.575-2.575a2.107,2.107,0,0,0-2.856-.134l4.071,4.071,1.361-1.361Zm-11.419,3.279a2.109,2.109,0,0,0,.135,2.856l2.575,2.575,1.361-1.36Z" fill="#edb937"/><path d="M123.043,136.49c-12.205,10.8-31.168,10.084-43.207-1.955s-12.759-31-1.955-43.207a30.892,30.892,0,0,0-2.326,4.7,32.335,32.335,0,0,0,42.791,42.791A30.907,30.907,0,0,0,123.043,136.49Z" fill="#21d0c3"/><path d="M127.034,129.358c9.529-10.833,8.443-28.06-2.759-39.262s-28.43-12.288-39.262-2.759q.444-.261.895-.5c10.864-7.843,26.782-6.276,37.344,4.287s12.129,26.48,4.287,37.345c-.162.3-.33.6-.5.894Z" fill="#21d0c3"/></g></g></svg>