<svg xmlns="http://www.w3.org/2000/svg" xmlns:xlink="http://www.w3.org/1999/xlink" width="91" height="81" viewBox="0 0 91 81"><defs><clipPath id="a"><rect width="91" height="81" transform="translate(679 1348)" fill="#fff" stroke="#707070" stroke-width="1"/></clipPath></defs><g transform="translate(-679 -1348)" clip-path="url(#a)"><g transform="translate(684 1348)"><rect width="81" height="81" fill="#50abf1"/><path d="M10.731,60.043A34.872,34.872,0,0,0,64.24,30.572q0-.721-.029-1.434c.7-.548,5-4,6.06-6.221a28.283,28.283,0,0,1-6.922,1.8l-.022,0,.018-.012c.315-.211,4.726-3.213,5.323-6.791A42.476,42.476,0,0,1,62.73,20.39c-.574.191-1.174.378-1.793.552A12.235,12.235,0,0,0,40.087,32.07c-.944-.039-15.327-.845-25.112-12.694,0,0-5.848,7.983,3.485,16.193a12.571,12.571,0,0,1-5.285-1.575s-.9,9.672,9.67,12.145a11.2,11.2,0,0,1-5.4.226s1.855,7.815,11.246,8.545a23.5,23.5,0,0,1-17.966,5.134Z" fill="#fff"/></g></g></svg>