<svg xmlns="http://www.w3.org/2000/svg" xmlns:xlink="http://www.w3.org/1999/xlink" width="91" height="81" viewBox="0 0 91 81"><defs><clipPath id="a"><rect width="91" height="81" transform="translate(516 1348)" fill="#fff" stroke="#707070" stroke-width="1"/></clipPath></defs><g transform="translate(-516 -1348)" clip-path="url(#a)"><g transform="translate(521 1348)"><rect width="81" height="81" fill="#dc472e"/><path d="M46.791,51.852a2.555,2.555,0,0,0-.2-.9.968.968,0,0,0-.871-.6,1.516,1.516,0,0,0-1.189.446.79.79,0,0,0-.2.3l.007,9.592v.236s.082.11.094.124a1.9,1.9,0,0,0,1.015.624.983.983,0,0,0,1.3-.777,2.328,2.328,0,0,0,.053-.483C46.8,57.561,46.8,54.706,46.791,51.852Zm0,0a2.555,2.555,0,0,0-.2-.9.968.968,0,0,0-.871-.6,1.516,1.516,0,0,0-1.189.446.79.79,0,0,0-.2.3l.007,9.592v.236s.082.11.094.124a1.9,1.9,0,0,0,1.015.624.983.983,0,0,0,1.3-.777,2.328,2.328,0,0,0,.053-.483C46.8,57.561,46.8,54.706,46.791,51.852ZM57.531,37.386q-17.028-.365-34.063,0A7.245,7.245,0,0,0,16.38,44.63V62.361a7.246,7.246,0,0,0,7.088,7.246q17.031.365,34.063,0a7.246,7.246,0,0,0,7.09-7.246V44.63A7.246,7.246,0,0,0,57.531,37.386ZM26.8,63.977H23.529V45.469H20.139v-3.1H30.2v3.089H26.8ZM38.519,56.3v7.684h-2.9V62.223c-.1.112-.164.172-.219.235a5.318,5.318,0,0,1-2.234,1.6,2.712,2.712,0,0,1-1.358.123A1.67,1.67,0,0,1,30.5,63.136a4.057,4.057,0,0,1-.3-1.672c-.007-2.115,0-13.309,0-13.417h2.892c.005.1.016,8.133.018,12.052a3.2,3.2,0,0,0,.044.64.707.707,0,0,0,1.017.567,3.16,3.16,0,0,0,1.4-1.1.507.507,0,0,0,.055-.293V48.029l2.9-.007S38.519,53.633,38.519,56.3Zm11.029,6.148A2.377,2.377,0,0,1,47.08,64.19a3.275,3.275,0,0,1-2.472-1.129l-.281-.3v1.212h-2.9v-21.6h2.9v7.111a2.918,2.918,0,0,1,.313-.5,3.335,3.335,0,0,1,1.673-1.063,2.518,2.518,0,0,1,3.011,1.369,5.613,5.613,0,0,1,.462,2.426q.008,4.53,0,9.059A5.3,5.3,0,0,1,49.547,62.443Zm10.726-.608a3.552,3.552,0,0,1-3.068,2.515,4.854,4.854,0,0,1-2.769-.283,3.845,3.845,0,0,1-2.2-2.8,8.437,8.437,0,0,1-.212-1.8c-.023-2.366-.012-4.733-.007-7.1a4.778,4.778,0,0,1,1.145-3.325,4.227,4.227,0,0,1,3.617-1.4,5.063,5.063,0,0,1,1.262.229,3.516,3.516,0,0,1,2.4,2.846,8.573,8.573,0,0,1,.16,1.61c.023,1.262-.009,4.044-.009,4.044H55.031v3.987a1.295,1.295,0,1,0,2.59,0V58.313h2.988A14.481,14.481,0,0,1,60.274,61.835ZM57.62,51.665a1.295,1.295,0,1,0-2.59,0V53.9h2.59Zm-11.032-.713a.968.968,0,0,0-.871-.6,1.516,1.516,0,0,0-1.189.446.79.79,0,0,0-.2.3l.007,9.592v.236s.082.11.094.124a1.9,1.9,0,0,0,1.015.624.983.983,0,0,0,1.3-.777,2.328,2.328,0,0,0,.053-.483c0-2.856.009-5.711-.005-8.565A2.553,2.553,0,0,0,46.588,50.953Z" fill="#fff"/><path d="M54.012,16.883v16.04H51.039l0-1.723c-.329.324-.609.626-.917.9a4.014,4.014,0,0,1-1.889.982,1.886,1.886,0,0,1-2.412-1.285,4.236,4.236,0,0,1-.192-1.2V16.883h2.95V29.115a2.765,2.765,0,0,0,.041.485.67.67,0,0,0,.948.573A3.17,3.17,0,0,0,51,29.076a.529.529,0,0,0,.045-.3V16.883Z" fill="#fff"/><path d="M29.429,19.67c-.645-2.72-2-8.461-2-8.461H24.05s2.6,8.618,3.761,12.461a1.532,1.532,0,0,1,.061.435v8.813h3.119V24.107a1.532,1.532,0,0,1,.061-.435C32.211,19.828,34.81,11.21,34.81,11.21H31.427s-1.352,5.741-2,8.461Z" fill="#fff"/><path d="M38.88,16.482h0a4.256,4.256,0,0,0-4.256,4.256v8.329a4.256,4.256,0,0,0,4.256,4.256h0a4.256,4.256,0,0,0,4.256-4.256V20.737A4.256,4.256,0,0,0,38.88,16.482Zm1.228,12.752a1.228,1.228,0,1,1-2.456,0V20.569a1.228,1.228,0,0,1,2.456,0Z" fill="#fff"/></g></g></svg>